# xmcd CD database file
#
# Track frame offsets:
#	150
#	15557
#	27961
#	41607
#	56441
#	69538
#	81605
#	94319
#	107854
#	121052
#	134171
#	149389
#	163938
#	178966
#	193409
#	207023
#	221338
#	236405
#
# Disc length: 3328 seconds
#
# Revision: 0
# Processed by: cddbd v1.5.2PL0 Copyright (c) Steve Scherf et al.
# Submitted via: CDex 1.70beta2
#
DISCID=120cfe12
DTITLE=Various Artist - How The Blues Was Born - Early Blues Moods
DYEAR=2003
DGENRE=Blues
TTITLE0=Mamie Smith - Crazy Blues
TTITLE1=Ed Andrews - Tima Ain't Gonna Make Me Stay
TTITLE2=Papa Charlie Jackson - Salty Dog Blues
TTITLE3=Ma Rainy - See See Rider
TTITLE4=Albert Hunter - Nobody Knows The Way I Feel This Mornin'
TTITLE5=Lonnie Johnson - Mr. Johnson's Blues
TTITLE6=Chippie Hill - Trouble In Mind
TTITLE7=Blind Lemon Jefferson - Match Box Blues
TTITLE8=De Ford Baily - Pan American Blues
TTITLE9=Texas Alexander - Section Gang Blues
TTITLE10=Luke Jordan - Cocaine Blues
TTITLE11=Jim Jackson - Kansas City Blues
TTITLE12=Blind Willie Johnson - Dark Was The Night Cool Was The Ground
TTITLE13=Meade Lux Lewis - Honky Tonk Train Blues
TTITLE14=William Moore - Old Country Rock
TTITLE15=Tommy Johnson - Big Road Blues
TTITLE16=Ishman Bracey - Saturday Blues
TTITLE17=Barbecue Bob - Ease It To Me Blues
EXTD=YEAR: 2003
EXTT0=
EXTT1=
EXTT2=
EXTT3=
EXTT4=
EXTT5=
EXTT6=
EXTT7=
EXTT8=
EXTT9=
EXTT10=
EXTT11=
EXTT12=
EXTT13=
EXTT14=
EXTT15=
EXTT16=
EXTT17=
PLAYORDER=
